<?xml version="1.0" encoding="UTF-8"?>
<svg width="272px" height="301px" viewBox="0 0 272 301" version="1.1" xmlns="http://www.w3.org/2000/svg" xmlns:xlink="http://www.w3.org/1999/xlink">
    <!-- Generator: Sketch 59.1 (86144) - https://sketch.com -->
    <title>Group</title>
    <desc>Created with Sketch.</desc>
    <g id="Page-2" stroke="none" stroke-width="1" fill="none" fill-rule="evenodd">
        <g id="Artboard-Copy-2" transform="translate(-253.000000, -69.000000)">
            <g id="Group" transform="translate(249.000000, 59.000000)">
                <text id="POPCOIN" font-family="AvenirNext-DemiBold, Avenir Next" font-size="60" font-weight="500" fill="#000000">
                    <tspan x="0.08" y="260">POPCOIN</tspan>
                </text>
                <g id="Seperated-P-Dark-Yellow" transform="translate(40.000000, 0.000000)">
                    <circle id="Combined-Shape" fill="#000000" fill-rule="evenodd" cx="100" cy="100" r="89.84375"></circle>
                    <path d="M88.0859375,149.21875 C88.0859375,151.376112 89.8348252,153.125 91.9921875,153.125 C94.1495498,153.125 95.8984955,151.376112 95.8984955,149.21875 L95.8984955,117.934925 C95.8984955,116.804731 95.4089314,115.729933 94.5563144,114.988055 L59.4664962,84.4557437 L94.5563144,53.9234324 C96.1838257,52.5073042 96.3551856,50.0399468 94.9390574,48.4124356 C93.5229292,46.7849243 91.0555718,46.6135644 89.4280606,48.0296926 L50.9514981,81.5088738 C49.1620006,83.0659492 49.1620006,85.8455382 50.9514981,87.4026136 L88.0859375,119.713988 L88.0859375,149.21875 Z" id="Left-P" fill="#FFD562" fill-rule="nonzero"></path>
                    <path d="M146.09375,149.21875 C146.09375,151.376112 147.842638,153.125 150,153.125 C152.157362,153.125 153.906308,151.376112 153.906308,149.21875 L153.906308,117.934925 C153.906308,116.804731 153.416744,115.729933 152.564127,114.988055 L117.474309,84.4557437 L152.564127,53.9234324 C154.191638,52.5073042 154.362998,50.0399468 152.94687,48.4124356 C151.530742,46.7849243 149.063384,46.6135644 147.435873,48.0296926 L108.959311,81.5088738 C107.169813,83.0659492 107.169813,85.8455382 108.959311,87.4026136 L146.09375,119.713988 L146.09375,149.21875 Z" id="Left-P" fill="#FFD562" fill-rule="nonzero" transform="translate(130.761748, 100.097627) scale(-1, 1) translate(-130.761748, -100.097627) "></path>
                    <rect id="Rectangle" fill="#FFD562" fill-rule="evenodd" x="107.617188" y="50.9765625" width="7.8125" height="68.75"></rect>
                </g>
                <g id="epfl-logo" transform="translate(90.000000, 282.000000)" fill="#FF0000" fill-rule="nonzero">
                    <polygon id="Path" points="0 12 6.26056338 12 6.26056338 5.44444444 21 5.44444444 21 0 0 0"></polygon>
                    <polygon id="Path" points="0 29 21 29 21 23.5555556 6.26056338 23.5555556 6.26056338 17 0 17"></polygon>
                    <rect id="Rectangle" x="6" y="12" width="14" height="5"></rect>
                    <path d="M47.7082631,2.668623 C46.8190237,1.81473686 45.7606562,1.15684046 44.6014767,0.737400046 C43.109256,0.212039962 41.5336756,-0.0363997993 39.9522364,0.00430124727 L27,0.00430124727 L27,29 L33.2518607,29 L33.2518607,17.182885 L39.9522364,17.182885 C41.5263549,17.2209202 43.0942814,16.9725184 44.5795979,16.4497862 C45.7465723,16.0330867 46.8126322,15.3750427 47.7082631,14.5185633 C48.4864151,13.748201 49.0825613,12.813599 49.4530957,11.78312 C50.1823014,9.72682385 50.1823014,7.48224598 49.4530957,5.42594983 C49.0839656,4.38837758 48.4878493,3.44634593 47.7082631,2.668623 Z M43.3325076,10.2512718 C43.0118503,10.6802639 42.5861236,11.0194121 42.0963567,11.2360313 C41.5267479,11.4795823 40.9238493,11.6363332 40.3077666,11.7010567 C39.6070678,11.7837029 38.9020139,11.823896 38.1964645,11.8214162 L33.2518607,11.8214162 L33.2518607,5.36577007 L38.2019342,5.36577007 C38.9074836,5.36329025 39.6125375,5.40348343 40.3132363,5.48612958 C40.9301125,5.5498268 41.5334349,5.70853334 42.1018263,5.95662582 C42.5904021,6.17014559 43.0146628,6.50774209 43.3325076,6.93591452 C43.6603616,7.41879275 43.8251914,7.99390573 43.8029013,8.57718048 C43.8323325,9.17153272 43.6671865,9.75927343 43.3325076,10.2512718 Z" id="Shape"></path>
                    <polygon id="Path" points="86.2605634 23.6377358 86.2605634 0 80 0 80 29 101 29 101 23.6377358"></polygon>
                    <polygon id="Path" points="54 12 60.2605634 12 60.2605634 5.44444444 75 5.44444444 75 0 54 0"></polygon>
                    <rect id="Rectangle" x="54" y="17" width="6" height="12"></rect>
                    <rect id="Rectangle" x="61" y="12" width="14" height="5"></rect>
                </g>
            </g>
        </g>
    </g>
</svg>